<svg width="192" height="24" viewBox="0 0 192 24" fill="none" xmlns="http://www.w3.org/2000/svg">
<g clip-path="url(#clip0_3246_6751)">
<path d="M38.8073 24H35.5835L39.8718 0H46.3499L42.5786 21.0071" fill="#9EFF00"/>
<path d="M48.4792 24H45.2554L49.5741 0H56.0521L52.2809 21.0071" fill="#9EFF00"/>
<path d="M4.31871 0H10.7968L9.00238 9.99529L19.4038 0H26.9463L15.6325 10.7294L22.6276 24H15.0851L10.5535 14.5129L7.72501 16.9976L6.47806 24H0L4.31871 0Z" fill="#9EFF00"/>
<path d="M28.9232 7.00244H35.4012L32.3599 24.0001H25.8818L28.9232 7.00244Z" fill="#9EFF00"/>
<path d="M30.1701 0H36.6481L29.2881 4.99765L30.1701 0Z" fill="#9EFF00"/>
<path d="M71.1368 23.9999H54.9873L58.3936 4.99756H78.8618L76.885 16.0093H62.1345L61.4045 20.0187H69.677L70.042 18.014H76.52L76.1551 20.0187M71.1368 11.9999L71.6843 9.00697H63.4118L62.8644 11.9999H71.1368Z" fill="#9EFF00"/>
<path d="M82.0856 4.99756H88.5637L88.1987 7.00226L93.9469 4.99756L93.0345 9.99521C92.7608 9.9105 87.2863 11.9999 87.2863 11.9999L85.127 23.9999H78.6489L82.0552 4.99756H82.0856Z" fill="#9EFF00"/>
<path d="M126.277 4.99756H132.755L132.39 7.00226L138.138 4.99756L137.225 9.99521C136.952 9.9105 131.477 11.9999 131.477 11.9999L129.318 23.9999H122.84L126.246 4.99756H126.277Z" fill="#9EFF00"/>
<path d="M119.251 7.99059H116.027L116.575 4.99765H105.809L104.379 12.9882L103.315 19.0024H114.081L114.811 14.9929H110.492L111.222 10.9835H121.988L121.471 13.7788C121.259 15.0212 120.65 18.4376 120.194 20.9788L116.392 24H95.9546L99.7259 2.99294L103.467 0H123.935L123.023 4.99765" fill="#9EFF00"/>
<path d="M139.902 13.0164H151.763L152.128 11.0117L152.493 9.00697H147.11L146.745 11.0117H140.267L141.331 4.99756H159.64L156.234 23.9999H149.756L150.303 21.007L147.596 23.9999H137.895L139.871 12.9881L139.902 13.0164ZM145.133 20.0187H150.516L151.246 16.0093H145.863L145.133 20.0187Z" fill="#9EFF00"/>
<path d="M162.895 4.99756H169.373L168.612 9.17638L171.532 4.99756H178.01C178.01 4.99756 179.196 8.92226 179.257 9.99521L183.393 4.99756H189.871L192.031 11.0117L189.689 24.0281H183.211L185.37 12.0281H179.987L177.828 24.0281H171.35L173.509 12.0281H168.126L165.966 24.0281H159.488L162.895 5.02579V4.99756Z" fill="#9EFF00"/>
</g>
<defs>
<clipPath id="clip0_3246_6751">
<rect width="192" height="24" fill="white"/>
</clipPath>
</defs>
</svg>
