<svg width="390" height="95" viewBox="0 0 390 95" fill="none" xmlns="http://www.w3.org/2000/svg">
<g clip-path="url(#clip0_3248_27)">
<path d="M118.743 64H114.445L120.163 31H128.8L123.772 59.8847" fill="#9EFF00"/>
<path d="M131.639 64H127.34L133.099 31H141.736L136.708 59.8847" fill="#9EFF00"/>
<path d="M72.7583 31H81.3957L79.0032 44.7435L92.8717 31H102.928L87.8433 45.7529L97.1701 64H87.1134L81.0713 50.9553L77.3 54.3718L75.6374 64H67L72.7583 31Z" fill="#9EFF00"/>
<path d="M105.564 40.6282H114.202L110.147 63.9999H101.509L105.564 40.6282Z" fill="#9EFF00"/>
<path d="M107.227 31H115.864L106.051 37.8718L107.227 31Z" fill="#9EFF00"/>
<path d="M161.849 63.9999H140.316L144.858 37.8717H172.149L169.513 53.0129H149.846L148.873 58.5258H159.903L160.389 55.7694H169.027L168.54 58.5258M161.849 47.4999L162.579 43.3846H151.549L150.819 47.4999H161.849Z" fill="#9EFF00"/>
<path d="M176.448 37.8717H185.085L184.599 40.6282L192.263 37.8717L191.046 44.7435C190.681 44.627 183.382 47.4999 183.382 47.4999L180.503 63.9999H171.866L176.407 37.8717H176.448Z" fill="#9EFF00"/>
<path d="M235.369 37.8717H244.006L243.52 40.6282L251.184 37.8717L249.967 44.7435C249.602 44.627 242.303 47.4999 242.303 47.4999L239.424 63.9999H230.787L235.328 37.8717H235.369Z" fill="#9EFF00"/>
<path d="M226.001 41.9871H221.703L222.433 37.8718H208.078L206.172 48.8588L204.752 57.1282H219.108L220.081 51.6153H214.322L215.296 46.1024H229.651L228.961 49.9459C228.678 51.6541 227.867 56.3518 227.258 59.8459L222.189 64H194.939L199.967 35.1153L204.955 31H232.246L231.03 37.8718" fill="#9EFF00"/>
<path d="M253.536 48.8976H269.351L269.837 46.1411L270.324 43.3846H263.146L262.66 46.1411H254.022L255.442 37.8717H279.854L275.312 63.9999H266.674L267.404 59.8846L263.795 63.9999H250.859L253.495 48.8588L253.536 48.8976ZM260.511 58.5258H267.688L268.661 53.0129H261.484L260.511 58.5258Z" fill="#9EFF00"/>
<path d="M284.193 37.8717H292.83L291.816 43.6176L295.709 37.8717H304.347C304.347 37.8717 305.928 43.2682 306.009 44.7435L311.524 37.8717H320.162L323.041 46.1411L319.918 64.0388H311.281L314.16 47.5388H306.982L304.103 64.0388H295.466L298.345 47.5388H291.167L288.288 64.0388H279.651L284.193 37.9105V37.8717Z" fill="#9EFF00"/>
</g>
<defs>
<clipPath id="clip0_3248_27">
<rect width="256" height="33" fill="white" transform="translate(67 31)"/>
</clipPath>
</defs>
</svg>
