<svg width="1025" height="1025" viewBox="0 0 1025 1025" fill="none" xmlns="http://www.w3.org/2000/svg">
<path d="M1024.5 0.5H0.5V1024.5H1024.5V0.5Z" fill="#181818" stroke="black" stroke-miterlimit="10"/>
<path d="M225.43 347.89H307.73L284.87 485.06L417.47 347.89H513.49L369.63 495.18L458.62 677.1H362.6L304.75 546.9L268.86 581.08L252.86 677.1H170.56L225.43 347.89Z" fill="#9EFF00"/>
<path d="M798.52 457.63H757.37L764.23 416.48H627.06L608.77 526.22L595.05 608.52H732.22L741.36 553.65H686.49L695.63 498.78H832.8L826.35 536.92C823.5 554.02 815.73 600.83 809.95 635.69C791.03 651.88 780.49 660.91 761.57 677.1H501.3L549.31 389.04C568.51 372.58 578.12 364.35 597.32 347.89H857.95L846.52 416.48" fill="#9EFF00"/>
</svg>
